<?xml version="1.0" encoding="UTF-8" standalone="no"?>
<!DOCTYPE svg PUBLIC "-//W3C//DTD SVG 1.0//EN" "http://www.w3.org/TR/2001/PR-SVG-20010719/DTD/svg10.dtd">
<svg width="37cm" height="31cm" viewBox="197 119 726 601" xmlns="http://www.w3.org/2000/svg" xmlns:xlink="http://www.w3.org/1999/xlink">
  <g>
    <polygon style="fill: #ffffff" points="743.6,425.636 699.6,400.636 699.6,425.636 743.6,450.636 "/>
    <polygon style="fill: none; fill-opacity:0; stroke-width: 2; stroke-dasharray: 4; stroke: #000000" points="743.6,425.636 699.6,400.636 699.6,425.636 743.6,450.636 "/>
    <polygon style="fill: none; fill-opacity:0; stroke-width: 2; stroke-dasharray: 4; stroke: #000000" points="743.6,425.636 699.6,400.636 699.6,425.636 743.6,450.636 "/>
  </g>
  <g>
    <polygon style="fill: #ffffff" points="894.6,366.318 850.6,341.318 850.6,366.318 894.6,391.318 "/>
    <polygon style="fill: none; fill-opacity:0; stroke-width: 2; stroke-dasharray: 4; stroke: #000000" points="894.6,366.318 850.6,341.318 850.6,366.318 894.6,391.318 "/>
    <polygon style="fill: none; fill-opacity:0; stroke-width: 2; stroke-dasharray: 4; stroke: #000000" points="894.6,366.318 850.6,341.318 850.6,366.318 894.6,391.318 "/>
  </g>
  <polygon style="fill: none; fill-opacity:0; stroke-width: 1.4; stroke-dasharray: 4; stroke: #000000" points="581.306,479.01 921.306,360.01 921.306,599.01 580.306,719.01 "/>
  <g>
    <polygon style="fill: #ffffff" points="200,240 540,121 540,360 199,480 "/>
    <polygon style="fill: none; fill-opacity:0; stroke-width: 2; stroke: #000000" points="200,240 540,121 540,360 199,480 "/>
  </g>
  <g>
    <polygon style="fill: #ffffff" points="213,357.5 264,340 264,357.5 213,375 "/>
    <polygon style="fill: none; fill-opacity:0; stroke-width: 2; stroke: #000000" points="213,357.5 264,340 264,357.5 213,375 "/>
    <polygon style="fill: none; fill-opacity:0; stroke-width: 2; stroke: #000000" points="213,357.5 264,340 264,357.5 213,375 "/>
  </g>
  <g>
    <polygon style="fill: #ffffff" points="348.3,312.5 399.3,295 399.3,312.5 348.3,330 "/>
    <polygon style="fill: none; fill-opacity:0; stroke-width: 2; stroke: #000000" points="348.3,312.5 399.3,295 399.3,312.5 348.3,330 "/>
    <polygon style="fill: none; fill-opacity:0; stroke-width: 2; stroke: #000000" points="348.3,312.5 399.3,295 399.3,312.5 348.3,330 "/>
  </g>
  <g>
    <polygon style="fill: #ffffff" points="474.6,269.1 525.6,251.6 525.6,269.1 474.6,286.6 "/>
    <polygon style="fill: none; fill-opacity:0; stroke-width: 2; stroke: #000000" points="474.6,269.1 525.6,251.6 525.6,269.1 474.6,286.6 "/>
    <polygon style="fill: none; fill-opacity:0; stroke-width: 2; stroke: #000000" points="474.6,269.1 525.6,251.6 525.6,269.1 474.6,286.6 "/>
  </g>
  <line style="fill: none; fill-opacity:0; stroke-width: 2; stroke: #000000" x1="540" y1="360" x2="921.306" y2="599.01"/>
  <line style="fill: none; fill-opacity:0; stroke-width: 2; stroke: #000000" x1="540" y1="121" x2="921.306" y2="360.01"/>
  <line style="fill: none; fill-opacity:0; stroke-width: 2; stroke: #000000" x1="199" y1="480" x2="580.306" y2="719.01"/>
  <g>
    <polygon style="fill: #ffffff" points="249,432.886 289,452.886 288,492.886 270,502.886 229,481.886 229,442.886 "/>
    <polygon style="fill: none; fill-opacity:0; stroke-width: 2; stroke-dasharray: 20 4 4 4 4 4; stroke: #000000" points="249,432.886 289,452.886 288,492.886 270,502.886 229,481.886 229,442.886 "/>
  </g>
  <g>
    <polygon style="fill: #ffffff" points="212.3,282.386 263.3,264.886 263.3,282.386 212.3,299.886 "/>
    <polygon style="fill: none; fill-opacity:0; stroke-width: 2; stroke-dasharray: 20 4 4 4 4 4; stroke: #000000" points="212.3,282.386 263.3,264.886 263.3,282.386 212.3,299.886 "/>
    <polygon style="fill: none; fill-opacity:0; stroke-width: 2; stroke-dasharray: 20 4 4 4 4 4; stroke: #000000" points="212.3,282.386 263.3,264.886 263.3,282.386 212.3,299.886 "/>
  </g>
  <g>
    <polygon style="fill: #ffffff" points="216.3,417.386 267.3,399.886 267.3,417.386 216.3,434.886 "/>
    <polygon style="fill: none; fill-opacity:0; stroke-width: 2; stroke-dasharray: 4; stroke: #000000" points="216.3,417.386 267.3,399.886 267.3,417.386 216.3,434.886 "/>
    <polygon style="fill: none; fill-opacity:0; stroke-width: 2; stroke-dasharray: 4; stroke: #000000" points="216.3,417.386 267.3,399.886 267.3,417.386 216.3,434.886 "/>
  </g>
  <g>
    <polygon style="fill: #ffffff" points="471.6,183.986 522.6,166.486 522.6,183.986 471.6,201.486 "/>
    <polygon style="fill: none; fill-opacity:0; stroke-width: 2; stroke-dasharray: 20 4 4 4 4 4; stroke: #000000" points="471.6,183.986 522.6,166.486 522.6,183.986 471.6,201.486 "/>
    <polygon style="fill: none; fill-opacity:0; stroke-width: 2; stroke-dasharray: 20 4 4 4 4 4; stroke: #000000" points="471.6,183.986 522.6,166.486 522.6,183.986 471.6,201.486 "/>
  </g>
  <g>
    <polygon style="fill: #ffffff" points="477.9,342.586 528.9,325.086 528.9,342.586 477.9,360.086 "/>
    <polygon style="fill: none; fill-opacity:0; stroke-width: 2; stroke-dasharray: 4; stroke: #000000" points="477.9,342.586 528.9,325.086 528.9,342.586 477.9,360.086 "/>
    <polygon style="fill: none; fill-opacity:0; stroke-width: 2; stroke-dasharray: 4; stroke: #000000" points="477.9,342.586 528.9,325.086 528.9,342.586 477.9,360.086 "/>
  </g>
  <g>
    <polygon style="fill: #ffffff" points="534,334.886 564,356.886 564,397.886 543,403.886 514.3,378.604 514.3,339.604 "/>
    <polygon style="fill: none; fill-opacity:0; stroke-width: 2; stroke: #000000" points="534,334.886 564,356.886 564,397.886 543,403.886 514.3,378.604 514.3,339.604 "/>
  </g>
  <g>
    <polygon style="fill: #ffffff" points="283.3,333.386 334.3,315.886 334.3,333.386 283.3,350.886 "/>
    <polygon style="fill: none; fill-opacity:0; stroke-width: 2; stroke-dasharray: 4; stroke: #000000" points="283.3,333.386 334.3,315.886 334.3,333.386 283.3,350.886 "/>
    <polygon style="fill: none; fill-opacity:0; stroke-width: 2; stroke-dasharray: 4; stroke: #000000" points="283.3,333.386 334.3,315.886 334.3,333.386 283.3,350.886 "/>
  </g>
  <g>
    <polygon style="fill: #ffffff" points="412.3,290.386 463.3,272.886 463.3,290.386 412.3,307.886 "/>
    <polygon style="fill: none; fill-opacity:0; stroke-width: 2; stroke-dasharray: 4; stroke: #000000" points="412.3,290.386 463.3,272.886 463.3,290.386 412.3,307.886 "/>
    <polygon style="fill: none; fill-opacity:0; stroke-width: 2; stroke-dasharray: 4; stroke: #000000" points="412.3,290.386 463.3,272.886 463.3,290.386 412.3,307.886 "/>
  </g>
  <g>
    <polygon style="fill: #ffffff" points="728.3,544.386 779.3,526.886 779.3,544.386 728.3,561.886 "/>
    <polygon style="fill: none; fill-opacity:0; stroke-width: 2; stroke-dasharray: 4; stroke: #000000" points="728.3,544.386 779.3,526.886 779.3,544.386 728.3,561.886 "/>
    <polygon style="fill: none; fill-opacity:0; stroke-width: 2; stroke-dasharray: 4; stroke: #000000" points="728.3,544.386 779.3,526.886 779.3,544.386 728.3,561.886 "/>
  </g>
  <g>
    <polygon style="fill: #ffffff" points="344.3,233.386 395.3,215.886 395.3,233.386 344.3,250.886 "/>
    <polygon style="fill: none; fill-opacity:0; stroke-width: 2; stroke-dasharray: 4; stroke: #000000" points="344.3,233.386 395.3,215.886 395.3,233.386 344.3,250.886 "/>
    <polygon style="fill: none; fill-opacity:0; stroke-width: 2; stroke-dasharray: 4; stroke: #000000" points="344.3,233.386 395.3,215.886 395.3,233.386 344.3,250.886 "/>
  </g>
  <g>
    <polygon style="fill: #ffffff" points="352.3,378.386 403.3,360.886 403.3,378.386 352.3,395.886 "/>
    <polygon style="fill: none; fill-opacity:0; stroke-width: 2; stroke-dasharray: 4; stroke: #000000" points="352.3,378.386 403.3,360.886 403.3,378.386 352.3,395.886 "/>
    <polygon style="fill: none; fill-opacity:0; stroke-width: 2; stroke-dasharray: 4; stroke: #000000" points="352.3,378.386 403.3,360.886 403.3,378.386 352.3,395.886 "/>
  </g>
  <g>
    <polygon style="fill: #ffffff" points="404.3,545.204 360.3,520.204 360.3,545.204 404.3,570.204 "/>
    <polygon style="fill: none; fill-opacity:0; stroke-width: 2; stroke-dasharray: 4; stroke: #000000" points="404.3,545.204 360.3,520.204 360.3,545.204 404.3,570.204 "/>
    <polygon style="fill: none; fill-opacity:0; stroke-width: 2; stroke-dasharray: 4; stroke: #000000" points="404.3,545.204 360.3,520.204 360.3,545.204 404.3,570.204 "/>
  </g>
  <line style="fill: none; fill-opacity:0; stroke-width: 1.4; stroke-dasharray: 4; stroke: #000000" x1="200" y1="240" x2="581.306" y2="479.01"/>
  <g>
    <polygon style="fill: #ffffff" points="404,402.886 360,377.886 360,402.886 404,427.886 "/>
    <polygon style="fill: none; fill-opacity:0; stroke-width: 2; stroke-dasharray: 4; stroke: #000000" points="404,402.886 360,377.886 360,402.886 404,427.886 "/>
    <polygon style="fill: none; fill-opacity:0; stroke-width: 2; stroke-dasharray: 4; stroke: #000000" points="404,402.886 360,377.886 360,402.886 404,427.886 "/>
  </g>
  <g>
    <polygon style="fill: #ffffff" points="568,285.886 594.502,300.368 560,311.886 535,298.886 "/>
    <polygon style="fill: none; fill-opacity:0; stroke-width: 2; stroke-dasharray: 4; stroke: #000000" points="568,285.886 594.502,300.368 560,311.886 535,298.886 "/>
  </g>
  <g>
    <polygon style="fill: #ffffff" points="728.3,458.386 779.3,440.886 779.3,458.386 728.3,475.886 "/>
    <polygon style="fill: none; fill-opacity:0; stroke-width: 2; stroke-dasharray: 4; stroke: #000000" points="728.3,458.386 779.3,440.886 779.3,458.386 728.3,475.886 "/>
    <polygon style="fill: none; fill-opacity:0; stroke-width: 2; stroke-dasharray: 4; stroke: #000000" points="728.3,458.386 779.3,440.886 779.3,458.386 728.3,475.886 "/>
  </g>
  <g>
    <polygon style="fill: #ffffff" points="404.3,477.204 360.3,452.204 360.3,477.204 404.3,502.204 "/>
    <polygon style="fill: none; fill-opacity:0; stroke-width: 2; stroke: #000000" points="404.3,477.204 360.3,452.204 360.3,477.204 404.3,502.204 "/>
    <polygon style="fill: none; fill-opacity:0; stroke-width: 2; stroke: #000000" points="404.3,477.204 360.3,452.204 360.3,477.204 404.3,502.204 "/>
  </g>
  <g>
    <rect style="fill: #ffffff" x="856.6" y="185.085" width="53" height="19"/>
    <rect style="fill: none; fill-opacity:0; stroke-width: 2; stroke-dasharray: 4; stroke: #000000" x="856.6" y="185.085" width="53" height="19"/>
  </g>
  <text font-size="12.8" style="fill: #000000;text-anchor:start;font-family:sans-serif;font-style:normal;font-weight:normal" x="766" y="199.886">
    <tspan x="766" y="199.886">Hamasaki 22.2</tspan>
  </text>
  <line style="fill: none; fill-opacity:0; stroke-width: 2; stroke: #000000" x1="921.306" y1="360.01" x2="921.306" y2="599.01"/>
  <line style="fill: none; fill-opacity:0; stroke-width: 2; stroke: #000000" x1="580.306" y1="719.01" x2="921.306" y2="599.01"/>
  <g>
    <polygon style="fill: #ffffff" points="743.3,283.318 699.3,258.318 699.3,283.318 743.3,308.318 "/>
    <polygon style="fill: none; fill-opacity:0; stroke-width: 2; stroke-dasharray: 4; stroke: #000000" points="743.3,283.318 699.3,258.318 699.3,283.318 743.3,308.318 "/>
    <polygon style="fill: none; fill-opacity:0; stroke-width: 2; stroke-dasharray: 4; stroke: #000000" points="743.3,283.318 699.3,258.318 699.3,283.318 743.3,308.318 "/>
  </g>
  <g>
    <polygon style="fill: #ffffff" points="743.6,357.636 699.6,332.636 699.6,357.636 743.6,382.636 "/>
    <polygon style="fill: none; fill-opacity:0; stroke-width: 2; stroke: #000000" points="743.6,357.636 699.6,332.636 699.6,357.636 743.6,382.636 "/>
    <polygon style="fill: none; fill-opacity:0; stroke-width: 2; stroke: #000000" points="743.6,357.636 699.6,332.636 699.6,357.636 743.6,382.636 "/>
  </g>
  <g>
    <polygon style="fill: #ffffff" points="555.3,485.886 511.3,460.886 511.3,485.886 555.3,510.886 "/>
    <polygon style="fill: none; fill-opacity:0; stroke-width: 2; stroke-dasharray: 4; stroke: #000000" points="555.3,485.886 511.3,460.886 511.3,485.886 555.3,510.886 "/>
    <polygon style="fill: none; fill-opacity:0; stroke-width: 2; stroke-dasharray: 4; stroke: #000000" points="555.3,485.886 511.3,460.886 511.3,485.886 555.3,510.886 "/>
  </g>
  <g>
    <polygon style="fill: #ffffff" points="555.6,560.204 511.6,535.204 511.6,560.204 555.6,585.204 "/>
    <polygon style="fill: none; fill-opacity:0; stroke-width: 2; stroke-dasharray: 20 4 4 4 4 4; stroke: #000000" points="555.6,560.204 511.6,535.204 511.6,560.204 555.6,585.204 "/>
    <polygon style="fill: none; fill-opacity:0; stroke-width: 2; stroke-dasharray: 20 4 4 4 4 4; stroke: #000000" points="555.6,560.204 511.6,535.204 511.6,560.204 555.6,585.204 "/>
  </g>
  <g>
    <polygon style="fill: #ffffff" points="894.9,440.636 850.9,415.636 850.9,440.636 894.9,465.636 "/>
    <polygon style="fill: none; fill-opacity:0; stroke-width: 2; stroke-dasharray: 20 4 4 4 4 4; stroke: #000000" points="894.9,440.636 850.9,415.636 850.9,440.636 894.9,465.636 "/>
    <polygon style="fill: none; fill-opacity:0; stroke-width: 2; stroke-dasharray: 20 4 4 4 4 4; stroke: #000000" points="894.9,440.636 850.9,415.636 850.9,440.636 894.9,465.636 "/>
  </g>
  <g>
    <rect style="fill: #ffffff" x="856.9" y="129.6" width="53" height="19"/>
    <rect style="fill: none; fill-opacity:0; stroke-width: 2; stroke: #000000" x="856.9" y="129.6" width="53" height="19"/>
  </g>
  <text font-size="12.8" style="fill: #000000;text-anchor:start;font-family:sans-serif;font-style:normal;font-weight:normal" x="756" y="145">
    <tspan x="756" y="145">Dolby Digital 5.1</tspan>
  </text>
  <g>
    <rect style="fill: #ffffff" x="857.2" y="156.6" width="53" height="19"/>
    <rect style="fill: none; fill-opacity:0; stroke-width: 2; stroke-dasharray: 20 4 4 4 4 4; stroke: #000000" x="857.2" y="156.6" width="53" height="19"/>
  </g>
  <text font-size="12.8" style="fill: #000000;text-anchor:start;font-family:sans-serif;font-style:normal;font-weight:normal" x="709" y="173">
    <tspan x="709" y="173">Typical 9.2 Arrangement</tspan>
  </text>
</svg>
